# xmcd
#
# Track frame offsets: 
#        150
#        22868
#        39074
#        54050
#        70669
#        88191
#        109174
#        123795
#        144958
#        161705
#        179308
#
# Disc length: 2618 seconds
#
# Revision: 0
# Processed by: cddbd v1.5.2PL0 Copyright (c) Steve Scherf et al.
# Submitted via: ExactAudioCopy v1.0b1
#
DISCID=7c0a380b
DTITLE=Zucchero Sugar Fornaciari - Chocabeck
DYEAR=2010
DGENRE=Blues
TTITLE0=Un soffio caldo
TTITLE1=Someone else's tears
TTITLE2=Soldati nella mia cittá
TTITLE3=E un peccato morir
TTITLE4=Vedo nero
TTITLE5=Oltre le rive
TTITLE6=Un uovo sodo
TTITLE7=Chocabeck
TTITLE8=Alla fine
TTITLE9=Spicinfrin boy
TTITLE10=God bless the child
EXTD=
EXTT0=
EXTT1=
EXTT2=
EXTT3=
EXTT4=
EXTT5=
EXTT6=
EXTT7=
EXTT8=
EXTT9=
EXTT10=
PLAYORDER=
